<mxfile host="app.diagrams.net" modified="2024-07-09T08:31:26.694Z" agent="Mozilla/5.0 (Windows NT 10.0; Win64; x64) AppleWebKit/537.36 (KHTML, like Gecko) Chrome/116.0.0.0 Safari/537.36" etag="kqWZSvpvaED7SOAzOAKv" version="24.6.4" type="github">
  <diagram name="第 1 页" id="2p6PbSH8Rtov-mYEVdqb">
    <mxGraphModel dx="1050" dy="542" grid="1" gridSize="10" guides="1" tooltips="1" connect="1" arrows="1" fold="1" page="1" pageScale="1" pageWidth="827" pageHeight="1169" math="0" shadow="0">
      <root>
        <mxCell id="0" />
        <mxCell id="1" parent="0" />
        <mxCell id="UeHk_AjMX2R_iuzYlcZ4-3" value="" style="edgeStyle=orthogonalEdgeStyle;rounded=0;orthogonalLoop=1;jettySize=auto;html=1;" edge="1" parent="1" source="UeHk_AjMX2R_iuzYlcZ4-1" target="UeHk_AjMX2R_iuzYlcZ4-2">
          <mxGeometry relative="1" as="geometry" />
        </mxCell>
        <mxCell id="UeHk_AjMX2R_iuzYlcZ4-1" value="搜索结果页/搜索联想页" style="whiteSpace=wrap;html=1;" vertex="1" parent="1">
          <mxGeometry x="334" y="80" width="160" height="60" as="geometry" />
        </mxCell>
        <mxCell id="UeHk_AjMX2R_iuzYlcZ4-2" value="实验参数开启新老逻辑" style="whiteSpace=wrap;html=1;" vertex="1" parent="1">
          <mxGeometry x="341" y="220" width="146" height="60" as="geometry" />
        </mxCell>
      </root>
    </mxGraphModel>
  </diagram>
</mxfile>
